<svg width="1069" height="100" viewBox="0 0 1069 100" fill="none" xmlns="http://www.w3.org/2000/svg">
<path d="M0 0H1069L978.451 39.5L1069 100H0L99.3456 48.6175L0 0Z" fill="#F5E760"/>
<path d="M114.139 50.104C114.139 46.776 114.859 43.816 116.299 41.224C117.739 38.6 119.739 36.568 122.299 35.128C124.891 33.656 127.819 32.92 131.083 32.92C135.083 32.92 138.507 33.976 141.355 36.088C144.203 38.2 146.107 41.08 147.067 44.728H138.043C137.371 43.32 136.411 42.248 135.163 41.512C133.947 40.776 132.555 40.408 130.987 40.408C128.459 40.408 126.411 41.288 124.843 43.048C123.275 44.808 122.491 47.16 122.491 50.104C122.491 53.048 123.275 55.4 124.843 57.16C126.411 58.92 128.459 59.8 130.987 59.8C132.555 59.8 133.947 59.432 135.163 58.696C136.411 57.96 137.371 56.888 138.043 55.48H147.067C146.107 59.128 144.203 62.008 141.355 64.12C138.507 66.2 135.083 67.24 131.083 67.24C127.819 67.24 124.891 66.52 122.299 65.08C119.739 63.608 117.739 61.576 116.299 58.984C114.859 56.392 114.139 53.432 114.139 50.104ZM170.909 67.336C167.741 67.336 164.829 66.6 162.173 65.128C159.549 63.656 157.453 61.608 155.885 58.984C154.349 56.328 153.581 53.352 153.581 50.056C153.581 46.76 154.349 43.8 155.885 41.176C157.453 38.552 159.549 36.504 162.173 35.032C164.829 33.56 167.741 32.824 170.909 32.824C174.077 32.824 176.973 33.56 179.597 35.032C182.253 36.504 184.333 38.552 185.837 41.176C187.373 43.8 188.141 46.76 188.141 50.056C188.141 53.352 187.373 56.328 185.837 58.984C184.301 61.608 182.221 63.656 179.597 65.128C176.973 66.6 174.077 67.336 170.909 67.336ZM170.909 59.848C173.597 59.848 175.741 58.952 177.341 57.16C178.973 55.368 179.789 53 179.789 50.056C179.789 47.08 178.973 44.712 177.341 42.952C175.741 41.16 173.597 40.264 170.909 40.264C168.189 40.264 166.013 41.144 164.381 42.904C162.781 44.664 161.981 47.048 161.981 50.056C161.981 53.032 162.781 55.416 164.381 57.208C166.013 58.968 168.189 59.848 170.909 59.848ZM203.796 60.664H214.548V67H195.588V33.304H203.796V60.664ZM237.279 67.336C234.111 67.336 231.199 66.6 228.543 65.128C225.919 63.656 223.823 61.608 222.255 58.984C220.719 56.328 219.951 53.352 219.951 50.056C219.951 46.76 220.719 43.8 222.255 41.176C223.823 38.552 225.919 36.504 228.543 35.032C231.199 33.56 234.111 32.824 237.279 32.824C240.447 32.824 243.343 33.56 245.967 35.032C248.623 36.504 250.703 38.552 252.207 41.176C253.743 43.8 254.511 46.76 254.511 50.056C254.511 53.352 253.743 56.328 252.207 58.984C250.671 61.608 248.591 63.656 245.967 65.128C243.343 66.6 240.447 67.336 237.279 67.336ZM237.279 59.848C239.967 59.848 242.111 58.952 243.711 57.16C245.343 55.368 246.159 53 246.159 50.056C246.159 47.08 245.343 44.712 243.711 42.952C242.111 41.16 239.967 40.264 237.279 40.264C234.559 40.264 232.383 41.144 230.751 42.904C229.151 44.664 228.351 47.048 228.351 50.056C228.351 53.032 229.151 55.416 230.751 57.208C232.383 58.968 234.559 59.848 237.279 59.848ZM285.957 72.76L281.637 66.952C280.357 67.208 279.109 67.336 277.893 67.336C274.725 67.336 271.813 66.6 269.157 65.128C266.533 63.656 264.437 61.608 262.869 58.984C261.333 56.328 260.565 53.352 260.565 50.056C260.565 46.76 261.333 43.8 262.869 41.176C264.437 38.552 266.533 36.504 269.157 35.032C271.813 33.56 274.725 32.824 277.893 32.824C281.061 32.824 283.957 33.56 286.581 35.032C289.237 36.504 291.317 38.552 292.821 41.176C294.357 43.8 295.125 46.76 295.125 50.056C295.125 52.936 294.533 55.576 293.349 57.976C292.197 60.344 290.581 62.312 288.501 63.88L295.893 72.76H285.957ZM268.965 50.056C268.965 53.032 269.765 55.416 271.365 57.208C272.997 58.968 275.173 59.848 277.893 59.848C280.581 59.848 282.725 58.952 284.325 57.16C285.957 55.368 286.773 53 286.773 50.056C286.773 47.08 285.957 44.712 284.325 42.952C282.725 41.16 280.581 40.264 277.893 40.264C275.173 40.264 272.997 41.144 271.365 42.904C269.765 44.664 268.965 47.048 268.965 50.056ZM310.729 33.304V53.464C310.729 55.48 311.225 57.032 312.217 58.12C313.209 59.208 314.665 59.752 316.585 59.752C318.505 59.752 319.977 59.208 321.001 58.12C322.025 57.032 322.537 55.48 322.537 53.464V33.304H330.745V53.416C330.745 56.424 330.105 58.968 328.825 61.048C327.545 63.128 325.817 64.696 323.641 65.752C321.497 66.808 319.097 67.336 316.441 67.336C313.785 67.336 311.401 66.824 309.289 65.8C307.209 64.744 305.561 63.176 304.345 61.096C303.129 58.984 302.521 56.424 302.521 53.416V33.304H310.729ZM347.597 39.88V46.696H358.589V53.032H347.597V60.424H360.029V67H339.389V33.304H360.029V39.88H347.597ZM397.225 67.336C394.057 67.336 391.145 66.6 388.489 65.128C385.865 63.656 383.769 61.608 382.201 58.984C380.665 56.328 379.897 53.352 379.897 50.056C379.897 46.76 380.665 43.8 382.201 41.176C383.769 38.552 385.865 36.504 388.489 35.032C391.145 33.56 394.057 32.824 397.225 32.824C400.393 32.824 403.289 33.56 405.913 35.032C408.569 36.504 410.649 38.552 412.153 41.176C413.689 43.8 414.457 46.76 414.457 50.056C414.457 53.352 413.689 56.328 412.153 58.984C410.617 61.608 408.537 63.656 405.913 65.128C403.289 66.6 400.393 67.336 397.225 67.336ZM397.225 59.848C399.913 59.848 402.057 58.952 403.657 57.16C405.289 55.368 406.105 53 406.105 50.056C406.105 47.08 405.289 44.712 403.657 42.952C402.057 41.16 399.913 40.264 397.225 40.264C394.505 40.264 392.329 41.144 390.697 42.904C389.097 44.664 388.297 47.048 388.297 50.056C388.297 53.032 389.097 55.416 390.697 57.208C392.329 58.968 394.505 59.848 397.225 59.848ZM434.096 67.336C431.632 67.336 429.424 66.936 427.472 66.136C425.52 65.336 423.952 64.152 422.768 62.584C421.616 61.016 421.008 59.128 420.944 56.92H429.68C429.808 58.168 430.24 59.128 430.976 59.8C431.712 60.44 432.672 60.76 433.856 60.76C435.072 60.76 436.032 60.488 436.736 59.944C437.44 59.368 437.792 58.584 437.792 57.592C437.792 56.76 437.504 56.072 436.928 55.528C436.384 54.984 435.696 54.536 434.864 54.184C434.064 53.832 432.912 53.432 431.408 52.984C429.232 52.312 427.456 51.64 426.08 50.968C424.704 50.296 423.52 49.304 422.528 47.992C421.536 46.68 421.04 44.968 421.04 42.856C421.04 39.72 422.176 37.272 424.448 35.512C426.72 33.72 429.68 32.824 433.328 32.824C437.04 32.824 440.032 33.72 442.304 35.512C444.576 37.272 445.792 39.736 445.952 42.904H437.072C437.008 41.816 436.608 40.968 435.872 40.36C435.136 39.72 434.192 39.4 433.04 39.4C432.048 39.4 431.248 39.672 430.64 40.216C430.032 40.728 429.728 41.48 429.728 42.472C429.728 43.56 430.24 44.408 431.264 45.016C432.288 45.624 433.888 46.28 436.064 46.984C438.24 47.72 440 48.424 441.344 49.096C442.72 49.768 443.904 50.744 444.896 52.024C445.888 53.304 446.384 54.952 446.384 56.968C446.384 58.888 445.888 60.632 444.896 62.2C443.936 63.768 442.528 65.016 440.672 65.944C438.816 66.872 436.624 67.336 434.096 67.336ZM483.303 67.336C480.135 67.336 477.223 66.6 474.567 65.128C471.943 63.656 469.847 61.608 468.279 58.984C466.743 56.328 465.975 53.352 465.975 50.056C465.975 46.76 466.743 43.8 468.279 41.176C469.847 38.552 471.943 36.504 474.567 35.032C477.223 33.56 480.135 32.824 483.303 32.824C486.471 32.824 489.367 33.56 491.991 35.032C494.647 36.504 496.727 38.552 498.231 41.176C499.767 43.8 500.535 46.76 500.535 50.056C500.535 53.352 499.767 56.328 498.231 58.984C496.695 61.608 494.615 63.656 491.991 65.128C489.367 66.6 486.471 67.336 483.303 67.336ZM483.303 59.848C485.991 59.848 488.135 58.952 489.735 57.16C491.367 55.368 492.183 53 492.183 50.056C492.183 47.08 491.367 44.712 489.735 42.952C488.135 41.16 485.991 40.264 483.303 40.264C480.583 40.264 478.407 41.144 476.775 42.904C475.175 44.664 474.375 47.048 474.375 50.056C474.375 53.032 475.175 55.416 476.775 57.208C478.407 58.968 480.583 59.848 483.303 59.848ZM488.871 26.536L477.303 31.384V25.72L488.871 20.152V26.536ZM506.589 50.104C506.589 46.776 507.309 43.816 508.749 41.224C510.189 38.6 512.189 36.568 514.749 35.128C517.341 33.656 520.269 32.92 523.533 32.92C527.533 32.92 530.957 33.976 533.805 36.088C536.653 38.2 538.557 41.08 539.517 44.728H530.493C529.821 43.32 528.861 42.248 527.613 41.512C526.397 40.776 525.005 40.408 523.437 40.408C520.909 40.408 518.861 41.288 517.293 43.048C515.725 44.808 514.941 47.16 514.941 50.104C514.941 53.048 515.725 55.4 517.293 57.16C518.861 58.92 520.909 59.8 523.437 59.8C525.005 59.8 526.397 59.432 527.613 58.696C528.861 57.96 529.821 56.888 530.493 55.48H539.517C538.557 59.128 536.653 62.008 533.805 64.12C530.957 66.2 527.533 67.24 523.533 67.24C520.269 67.24 517.341 66.52 514.749 65.08C512.189 63.608 510.189 61.576 508.749 58.984C507.309 56.392 506.589 53.432 506.589 50.104ZM555.488 33.304V53.464C555.488 55.48 555.984 57.032 556.976 58.12C557.968 59.208 559.424 59.752 561.344 59.752C563.264 59.752 564.736 59.208 565.76 58.12C566.784 57.032 567.296 55.48 567.296 53.464V33.304H575.504V53.416C575.504 56.424 574.864 58.968 573.584 61.048C572.304 63.128 570.576 64.696 568.4 65.752C566.256 66.808 563.856 67.336 561.2 67.336C558.544 67.336 556.16 66.824 554.048 65.8C551.968 64.744 550.32 63.176 549.104 61.096C547.888 58.984 547.28 56.424 547.28 53.416V33.304H555.488ZM592.356 60.664H603.108V67H584.148V33.304H592.356V60.664ZM625.839 67.336C622.671 67.336 619.759 66.6 617.103 65.128C614.479 63.656 612.383 61.608 610.815 58.984C609.279 56.328 608.511 53.352 608.511 50.056C608.511 46.76 609.279 43.8 610.815 41.176C612.383 38.552 614.479 36.504 617.103 35.032C619.759 33.56 622.671 32.824 625.839 32.824C629.007 32.824 631.903 33.56 634.527 35.032C637.183 36.504 639.263 38.552 640.767 41.176C642.303 43.8 643.071 46.76 643.071 50.056C643.071 53.352 642.303 56.328 640.767 58.984C639.231 61.608 637.151 63.656 634.527 65.128C631.903 66.6 629.007 67.336 625.839 67.336ZM625.839 59.848C628.527 59.848 630.671 58.952 632.271 57.16C633.903 55.368 634.719 53 634.719 50.056C634.719 47.08 633.903 44.712 632.271 42.952C630.671 41.16 628.527 40.264 625.839 40.264C623.119 40.264 620.943 41.144 619.311 42.904C617.711 44.664 616.911 47.048 616.911 50.056C616.911 53.032 617.711 55.416 619.311 57.208C620.943 58.968 623.119 59.848 625.839 59.848ZM662.709 67.336C660.245 67.336 658.037 66.936 656.085 66.136C654.133 65.336 652.565 64.152 651.381 62.584C650.229 61.016 649.621 59.128 649.557 56.92H658.293C658.421 58.168 658.853 59.128 659.589 59.8C660.325 60.44 661.285 60.76 662.469 60.76C663.685 60.76 664.645 60.488 665.349 59.944C666.053 59.368 666.405 58.584 666.405 57.592C666.405 56.76 666.117 56.072 665.541 55.528C664.997 54.984 664.309 54.536 663.477 54.184C662.677 53.832 661.525 53.432 660.021 52.984C657.845 52.312 656.069 51.64 654.693 50.968C653.317 50.296 652.133 49.304 651.141 47.992C650.149 46.68 649.653 44.968 649.653 42.856C649.653 39.72 650.789 37.272 653.061 35.512C655.333 33.72 658.293 32.824 661.941 32.824C665.653 32.824 668.645 33.72 670.917 35.512C673.189 37.272 674.405 39.736 674.565 42.904H665.685C665.621 41.816 665.221 40.968 664.485 40.36C663.749 39.72 662.805 39.4 661.653 39.4C660.661 39.4 659.861 39.672 659.253 40.216C658.645 40.728 658.341 41.48 658.341 42.472C658.341 43.56 658.853 44.408 659.877 45.016C660.901 45.624 662.501 46.28 664.677 46.984C666.853 47.72 668.613 48.424 669.957 49.096C671.333 49.768 672.517 50.744 673.509 52.024C674.501 53.304 674.997 54.952 674.997 56.968C674.997 58.888 674.501 60.632 673.509 62.2C672.549 63.768 671.141 65.016 669.285 65.944C667.429 66.872 665.237 67.336 662.709 67.336ZM704.188 39.88V46.696H715.18V53.032H704.188V60.424H716.62V67H695.98V33.304H716.62V39.88H704.188ZM737.021 67.336C734.557 67.336 732.349 66.936 730.397 66.136C728.445 65.336 726.877 64.152 725.693 62.584C724.541 61.016 723.933 59.128 723.869 56.92H732.605C732.733 58.168 733.165 59.128 733.901 59.8C734.637 60.44 735.597 60.76 736.781 60.76C737.997 60.76 738.957 60.488 739.661 59.944C740.365 59.368 740.717 58.584 740.717 57.592C740.717 56.76 740.429 56.072 739.853 55.528C739.309 54.984 738.621 54.536 737.789 54.184C736.989 53.832 735.837 53.432 734.333 52.984C732.157 52.312 730.381 51.64 729.005 50.968C727.629 50.296 726.445 49.304 725.453 47.992C724.461 46.68 723.965 44.968 723.965 42.856C723.965 39.72 725.101 37.272 727.373 35.512C729.645 33.72 732.605 32.824 736.253 32.824C739.965 32.824 742.957 33.72 745.229 35.512C747.501 37.272 748.717 39.736 748.877 42.904H739.997C739.933 41.816 739.533 40.968 738.797 40.36C738.061 39.72 737.117 39.4 735.965 39.4C734.973 39.4 734.173 39.672 733.565 40.216C732.957 40.728 732.653 41.48 732.653 42.472C732.653 43.56 733.165 44.408 734.189 45.016C735.213 45.624 736.813 46.28 738.989 46.984C741.165 47.72 742.925 48.424 744.269 49.096C745.645 49.768 746.829 50.744 747.821 52.024C748.813 53.304 749.309 54.952 749.309 56.968C749.309 58.888 748.813 60.632 747.821 62.2C746.861 63.768 745.453 65.016 743.597 65.944C741.741 66.872 739.549 67.336 737.021 67.336ZM755.848 50.104C755.848 46.776 756.568 43.816 758.008 41.224C759.448 38.6 761.448 36.568 764.008 35.128C766.6 33.656 769.528 32.92 772.792 32.92C776.792 32.92 780.216 33.976 783.064 36.088C785.912 38.2 787.816 41.08 788.776 44.728H779.752C779.08 43.32 778.12 42.248 776.872 41.512C775.656 40.776 774.264 40.408 772.696 40.408C770.168 40.408 768.12 41.288 766.552 43.048C764.984 44.808 764.2 47.16 764.2 50.104C764.2 53.048 764.984 55.4 766.552 57.16C768.12 58.92 770.168 59.8 772.696 59.8C774.264 59.8 775.656 59.432 776.872 58.696C778.12 57.96 779.08 56.888 779.752 55.48H788.776C787.816 59.128 785.912 62.008 783.064 64.12C780.216 66.2 776.792 67.24 772.792 67.24C769.528 67.24 766.6 66.52 764.008 65.08C761.448 63.608 759.448 61.576 758.008 58.984C756.568 56.392 755.848 53.432 755.848 50.104ZM804.747 33.304V53.464C804.747 55.48 805.243 57.032 806.235 58.12C807.227 59.208 808.683 59.752 810.603 59.752C812.523 59.752 813.995 59.208 815.019 58.12C816.043 57.032 816.555 55.48 816.555 53.464V33.304H824.763V53.416C824.763 56.424 824.123 58.968 822.843 61.048C821.563 63.128 819.835 64.696 817.659 65.752C815.515 66.808 813.115 67.336 810.459 67.336C807.803 67.336 805.419 66.824 803.307 65.8C801.227 64.744 799.579 63.176 798.363 61.096C797.147 58.984 796.539 56.424 796.539 53.416V33.304H804.747ZM850.59 67L843.582 54.28H841.614V67H833.406V33.304H847.182C849.838 33.304 852.094 33.768 853.95 34.696C855.838 35.624 857.246 36.904 858.174 38.536C859.102 40.136 859.566 41.928 859.566 43.912C859.566 46.152 858.926 48.152 857.646 49.912C856.398 51.672 854.542 52.92 852.078 53.656L859.854 67H850.59ZM841.614 48.472H846.702C848.206 48.472 849.326 48.104 850.062 47.368C850.83 46.632 851.214 45.592 851.214 44.248C851.214 42.968 850.83 41.96 850.062 41.224C849.326 40.488 848.206 40.12 846.702 40.12H841.614V48.472ZM883.535 67.336C880.367 67.336 877.455 66.6 874.799 65.128C872.175 63.656 870.079 61.608 868.511 58.984C866.975 56.328 866.207 53.352 866.207 50.056C866.207 46.76 866.975 43.8 868.511 41.176C870.079 38.552 872.175 36.504 874.799 35.032C877.455 33.56 880.367 32.824 883.535 32.824C886.703 32.824 889.599 33.56 892.223 35.032C894.879 36.504 896.959 38.552 898.463 41.176C899.999 43.8 900.767 46.76 900.767 50.056C900.767 53.352 899.999 56.328 898.463 58.984C896.927 61.608 894.847 63.656 892.223 65.128C889.599 66.6 886.703 67.336 883.535 67.336ZM883.535 59.848C886.223 59.848 888.367 58.952 889.967 57.16C891.599 55.368 892.415 53 892.415 50.056C892.415 47.08 891.599 44.712 889.967 42.952C888.367 41.16 886.223 40.264 883.535 40.264C880.815 40.264 878.639 41.144 877.007 42.904C875.407 44.664 874.607 47.048 874.607 50.056C874.607 53.032 875.407 55.416 877.007 57.208C878.639 58.968 880.815 59.848 883.535 59.848ZM920.405 67.336C917.941 67.336 915.733 66.936 913.781 66.136C911.829 65.336 910.261 64.152 909.077 62.584C907.925 61.016 907.317 59.128 907.253 56.92H915.989C916.117 58.168 916.549 59.128 917.285 59.8C918.021 60.44 918.981 60.76 920.165 60.76C921.381 60.76 922.341 60.488 923.045 59.944C923.749 59.368 924.101 58.584 924.101 57.592C924.101 56.76 923.813 56.072 923.237 55.528C922.693 54.984 922.005 54.536 921.173 54.184C920.373 53.832 919.221 53.432 917.717 52.984C915.541 52.312 913.765 51.64 912.389 50.968C911.013 50.296 909.829 49.304 908.837 47.992C907.845 46.68 907.349 44.968 907.349 42.856C907.349 39.72 908.485 37.272 910.757 35.512C913.029 33.72 915.989 32.824 919.637 32.824C923.349 32.824 926.341 33.72 928.613 35.512C930.885 37.272 932.101 39.736 932.261 42.904H923.381C923.317 41.816 922.917 40.968 922.181 40.36C921.445 39.72 920.501 39.4 919.349 39.4C918.357 39.4 917.557 39.672 916.949 40.216C916.341 40.728 916.037 41.48 916.037 42.472C916.037 43.56 916.549 44.408 917.573 45.016C918.597 45.624 920.197 46.28 922.373 46.984C924.549 47.72 926.309 48.424 927.653 49.096C929.029 49.768 930.213 50.744 931.205 52.024C932.197 53.304 932.693 54.952 932.693 56.968C932.693 58.888 932.197 60.632 931.205 62.2C930.245 63.768 928.837 65.016 926.981 65.944C925.125 66.872 922.933 67.336 920.405 67.336ZM951.424 32.104L950.464 55.096H943.504L942.544 32.104H951.424ZM947.104 67.384C945.664 67.384 944.48 66.968 943.552 66.136C942.656 65.272 942.208 64.216 942.208 62.968C942.208 61.688 942.656 60.616 943.552 59.752C944.48 58.888 945.664 58.456 947.104 58.456C948.512 58.456 949.664 58.888 950.56 59.752C951.488 60.616 951.952 61.688 951.952 62.968C951.952 64.216 951.488 65.272 950.56 66.136C949.664 66.968 948.512 67.384 947.104 67.384Z" fill="#322659"/>
</svg>
