<svg width="250" height="155" viewBox="0 0 250 155" fill="none" xmlns="http://www.w3.org/2000/svg">
<path d="M38.7316 60.6089C36.6196 60.6089 35.1316 59.7689 34.2676 58.0889C33.4036 56.4569 32.9716 54.5369 32.9716 52.3289C32.9716 50.3609 33.2356 48.4169 33.7636 46.4969C34.3396 44.5769 35.0116 43.1129 35.7796 42.1049C34.4836 43.6409 32.8756 45.3929 30.9556 47.3609C29.0356 49.3289 26.9236 51.2249 24.6196 53.0489C22.3156 54.8729 19.9396 56.3849 17.4916 57.5849C15.0436 58.7849 12.6196 59.3849 10.2196 59.3849C9.4996 59.3849 8.7796 59.3129 8.0596 59.1689C7.3876 59.0729 6.7156 58.8809 6.0436 58.5929C4.2676 57.8729 2.9476 56.6009 2.0836 54.7769C1.2196 52.9049 0.787598 50.6729 0.787598 48.0809C0.787598 45.3449 1.2436 42.4169 2.1556 39.2969C3.1156 36.1289 4.5076 32.9129 6.3316 29.6489C7.1956 28.0649 8.1556 26.5049 9.2116 24.9689C10.3156 23.3849 11.4916 21.8969 12.7396 20.5049C11.2516 19.8329 9.8836 19.0889 8.6356 18.2729C7.3876 17.4089 6.3316 16.4729 5.4676 15.4649C4.8916 14.7929 4.4596 14.0009 4.1716 13.0889C3.8836 12.1769 3.7396 11.2889 3.7396 10.4249C3.7396 8.88891 4.0996 7.88091 4.8196 7.40091C5.0596 7.01691 5.3476 6.82491 5.6836 6.82491C6.1156 6.82491 6.3316 7.08891 6.3316 7.61691C6.3316 7.95291 6.2356 8.31291 6.0436 8.69691C5.8036 9.32091 5.6836 9.89691 5.6836 10.4249C5.6836 11.1929 5.8756 11.9129 6.2596 12.5849C6.6436 13.2089 7.0996 13.8089 7.6276 14.3849C9.1636 16.2089 11.2756 17.7209 13.9636 18.9209C17.0356 15.5609 20.3956 12.4649 24.0436 9.63291C27.7396 6.75291 31.6996 4.44891 35.9236 2.72091C40.1476 0.992907 44.5876 0.128906 49.2436 0.128906C53.1316 0.128906 56.1796 0.992907 58.3876 2.72091C60.5956 4.40091 61.6996 6.58491 61.6996 9.27291C61.6996 10.5689 61.3156 11.9849 60.5476 13.5209C59.7796 15.0089 58.5316 16.4729 56.8036 17.9129C55.0756 19.3049 52.7716 20.5289 49.8916 21.5849C47.0596 22.5929 43.5316 23.2889 39.3076 23.6729C37.8196 23.8169 36.4756 23.9369 35.2756 24.0329C34.1236 24.0809 32.8756 24.1049 31.5316 24.1049C29.0356 24.1049 26.6116 23.9369 24.2596 23.6009C21.9556 23.2649 19.6516 22.7369 17.3476 22.0169C16.4836 23.2169 15.3796 24.8489 14.0356 26.9129C12.7396 28.9769 11.4436 31.1849 10.1476 33.5369C8.8516 35.8889 7.7716 38.1209 6.9076 40.2329C6.1396 42.2489 5.5636 44.0969 5.1796 45.7769C4.7956 47.4089 4.6036 48.8729 4.6036 50.1689C4.6036 52.5209 5.1556 54.2969 6.2596 55.4969C7.3636 56.6489 8.8516 57.2249 10.7236 57.2249C12.5476 57.2249 14.6116 56.6969 16.9156 55.6409C19.2676 54.5849 21.7156 53.0009 24.2596 50.8889C26.8036 48.7769 29.2756 46.4009 31.6756 43.7609C34.1236 41.1209 36.3556 38.4329 38.3716 35.6969C40.3876 32.9609 42.0196 30.4409 43.2676 28.1369C44.0836 26.6009 44.8756 25.5209 45.6436 24.8969C46.4116 24.2249 47.0596 23.8889 47.5876 23.8889C48.1156 23.8889 48.5236 24.1049 48.8116 24.5369C49.0996 24.9209 49.2436 25.4489 49.2436 26.1209C49.2436 27.4649 48.6436 28.8089 47.4436 30.1529C46.0996 31.6409 44.7796 33.4649 43.4836 35.6249C42.1876 37.7849 41.0356 40.0649 40.0276 42.4649C39.0196 44.8649 38.2996 47.2169 37.8676 49.5209C37.7236 50.2889 37.6276 51.0089 37.5796 51.6809C37.5316 52.3529 37.5076 52.9529 37.5076 53.4809C37.5076 55.2569 37.7716 56.5289 38.2996 57.2969C38.8756 58.0649 39.6196 58.4489 40.5316 58.4489C41.6356 58.4489 42.9076 57.9449 44.3476 56.9369C45.7876 55.9289 47.1796 54.5849 48.5236 52.9049C49.6756 51.3689 50.7796 49.7369 51.8356 48.0089C52.9396 46.2809 53.9476 44.4809 54.8596 42.6089C55.0036 42.2729 55.1956 42.0329 55.4356 41.8889C55.7236 41.6969 55.9156 41.6009 56.0116 41.6009C56.2516 41.6009 56.3716 41.7449 56.3716 42.0329C56.3716 42.2249 56.2996 42.5129 56.1556 42.8969C55.7236 43.8569 55.1476 45.0089 54.4276 46.3529C53.7076 47.6969 52.9156 49.0889 52.0516 50.5289C51.1876 51.9209 50.2996 53.2169 49.3876 54.4169C48.1396 56.0489 46.5556 57.4889 44.6356 58.7369C42.7636 59.9849 40.7956 60.6089 38.7316 60.6089ZM30.8836 22.3769C33.3796 22.3769 36.1636 22.2329 39.2356 21.9449C43.2196 21.6089 46.6756 20.8169 49.6036 19.5689C52.5316 18.3209 54.7876 16.7369 56.3716 14.8169C57.9556 12.8969 58.7476 10.7609 58.7476 8.40891C58.7476 6.29691 57.8596 4.68891 56.0836 3.58491C54.3556 2.48091 52.1476 1.92891 49.4596 1.92891C44.9956 1.92891 40.9156 2.81691 37.2196 4.59291C33.5716 6.32091 30.2116 8.60091 27.1396 11.4329C24.1156 14.2649 21.2356 17.3129 18.4996 20.5769C22.1476 21.7769 26.2756 22.3769 30.8836 22.3769ZM57.9427 56.2169C55.9267 56.2169 54.5587 55.6889 53.8387 54.6329C53.1187 53.5289 52.7587 52.2329 52.7587 50.7449C52.7587 49.2089 52.9747 47.6249 53.4067 45.9929C53.8387 44.3609 54.2227 42.9929 54.5587 41.8889C55.3267 39.2009 56.2867 36.3449 57.4387 33.3209C58.6387 30.2489 59.9347 27.2489 61.3267 24.3209C62.7667 21.3449 64.1827 18.6809 65.5747 16.3289C66.6787 14.4569 67.8547 13.0649 69.1027 12.1529C70.3987 11.1929 71.5267 10.7129 72.4867 10.7129C73.2547 10.7129 73.8547 11.0009 74.2867 11.5769C74.7667 12.1049 75.0067 12.9209 75.0067 14.0249C75.0067 14.7929 74.8627 15.7049 74.5747 16.7609C74.3347 17.8169 73.9027 19.0169 73.2787 20.3609C71.5987 24.1049 69.5827 27.8489 67.2307 31.5929C64.9267 35.3369 61.9987 38.8409 58.4467 42.1049C58.2547 42.7289 57.9907 43.4729 57.6547 44.3369C57.3667 45.1529 57.1027 45.9929 56.8627 46.8569C56.5747 48.1529 56.4307 49.2569 56.4307 50.1689C56.4307 51.6569 56.7187 52.7849 57.2947 53.5529C57.9187 54.2729 58.6627 54.6329 59.5267 54.6329C60.2947 54.6329 61.1107 54.3689 61.9747 53.8409C62.8387 53.2649 63.6547 52.4489 64.4227 51.3929C65.5747 49.7129 66.6067 48.0089 67.5187 46.2809C68.4787 44.5049 69.1987 43.1369 69.6787 42.1769C69.9667 41.6489 70.2787 41.3849 70.6147 41.3849C70.8547 41.3849 70.9747 41.5289 70.9747 41.8169C70.9747 42.0569 70.9027 42.3209 70.7587 42.6089C70.3267 43.5689 69.7507 44.8169 69.0307 46.3529C68.3587 47.8409 67.4947 49.3529 66.4387 50.8889C65.4307 52.3769 64.2067 53.6489 62.7667 54.7049C61.3747 55.7129 59.7667 56.2169 57.9427 56.2169ZM59.0227 39.8009C60.7507 38.0249 62.4307 35.9849 64.0627 33.6809C65.6947 31.3289 67.2067 28.9049 68.5987 26.4089C70.0387 23.8649 71.2387 21.4649 72.1987 19.2089C72.5347 18.4889 72.7987 17.6969 72.9907 16.8329C73.2307 15.9689 73.3507 15.2489 73.3507 14.6729C73.3507 14.0009 73.1827 13.6649 72.8467 13.6649C72.6547 13.6649 72.3667 13.8569 71.9827 14.2409C71.5987 14.5769 71.0947 15.1769 70.4707 16.0409C69.5587 17.2409 68.5507 18.8729 67.4467 20.9369C66.3907 23.0009 65.3107 25.2089 64.2067 27.5609C63.1027 29.9129 62.0947 32.1929 61.1827 34.4009C60.2707 36.5609 59.5507 38.3609 59.0227 39.8009ZM74.0628 56.2889C72.2868 56.2889 70.6788 55.7129 69.2388 54.5609C67.8468 53.4089 67.1508 51.6569 67.1508 49.3049C67.1508 47.1449 67.6788 44.8409 68.7348 42.3929C69.7908 39.8969 71.1348 37.7129 72.7668 35.8409C74.1588 34.2089 75.7188 32.8649 77.4468 31.8089C79.1748 30.7529 80.8068 30.2249 82.3428 30.2249C83.3988 30.2249 84.3108 30.5129 85.0788 31.0889C85.8948 31.7129 86.3028 32.6009 86.3028 33.7529C86.3028 34.9529 85.8468 36.2729 84.9348 37.7129C84.0228 39.1529 82.7268 40.4969 81.0468 41.7449C80.3268 42.2729 79.4148 42.7769 78.3108 43.2569C77.2068 43.7369 76.1028 44.1449 74.9988 44.4809C73.8948 44.7689 72.9828 44.9129 72.2628 44.9129C72.0228 45.4889 71.7828 46.2569 71.5428 47.2169C71.3508 48.1769 71.2548 49.1609 71.2548 50.1689C71.2548 51.3689 71.4948 52.4489 71.9748 53.4089C72.4548 54.3689 73.3428 54.8489 74.6388 54.8489C76.2228 54.8489 77.6628 54.3929 78.9588 53.4809C80.2548 52.5689 81.4068 51.4409 82.4148 50.0969C83.4228 48.7049 84.2628 47.3129 84.9348 45.9209C85.6548 44.5289 86.2308 43.3529 86.6628 42.3929C86.9508 41.7209 87.3348 41.3849 87.8148 41.3849C88.0548 41.3849 88.1748 41.5049 88.1748 41.7449C88.1748 41.9369 88.1028 42.1769 87.9588 42.4649C87.2868 43.9049 86.5668 45.4409 85.7988 47.0729C85.0308 48.6569 84.1188 50.1689 83.0628 51.6089C82.0068 53.0009 80.7348 54.1289 79.2468 54.9929C77.8068 55.8569 76.0788 56.2889 74.0628 56.2889ZM72.7668 43.6169C73.4388 43.6169 74.5668 43.3769 76.1508 42.8969C77.7348 42.3689 79.1748 41.5529 80.4708 40.4489C81.7188 39.3449 82.6788 38.1449 83.3508 36.8489C84.0228 35.5049 84.3588 34.3769 84.3588 33.4649C84.3588 32.4089 83.9748 31.8809 83.2068 31.8809C82.6308 31.8809 81.8388 32.2649 80.8308 33.0329C79.8228 33.8009 78.5748 35.0969 77.0868 36.9209C76.1748 38.0729 75.3108 39.3209 74.4948 40.6649C73.6788 42.0089 73.1028 42.9929 72.7668 43.6169ZM94.1542 26.7689C93.4342 26.7689 92.8342 26.5289 92.3542 26.0489C91.9222 25.5209 91.7062 24.8969 91.7062 24.1769C91.7062 23.2649 92.0662 22.4729 92.7862 21.8009C93.5062 21.1289 94.2982 20.7929 95.1622 20.7929C95.9302 20.7929 96.5542 21.0329 97.0342 21.5129C97.5142 21.9929 97.7542 22.5689 97.7542 23.2409C97.7542 24.1529 97.3942 24.9689 96.6742 25.6889C95.9542 26.4089 95.1142 26.7689 94.1542 26.7689ZM88.3222 56.0009C86.5462 56.0009 85.2982 55.4969 84.5782 54.4889C83.8582 53.4329 83.4982 52.2329 83.4982 50.8889C83.4982 50.1689 83.5702 49.4489 83.7142 48.7289C83.9062 47.9609 84.1222 47.2649 84.3622 46.6409L89.1862 34.3289C89.3302 33.9449 89.4022 33.6089 89.4022 33.3209C89.4022 32.8409 89.2822 32.4329 89.0422 32.0969C88.8022 31.7129 88.6342 31.4489 88.5382 31.3049L92.4982 31.1609C93.2182 31.1129 93.7222 31.2089 94.0102 31.4489C94.3462 31.6409 94.5142 31.8809 94.5142 32.1689C94.5142 32.4569 94.3462 32.9849 94.0102 33.7529L88.0342 47.7929C88.0342 47.7929 87.8902 48.1049 87.6022 48.7289C87.3622 49.3049 87.2182 49.6889 87.1702 49.8809C87.0262 50.6009 86.9302 51.0569 86.8822 51.2489C86.8342 51.4409 86.8102 51.5609 86.8102 51.6089C86.8102 51.6569 86.8102 51.8489 86.8102 52.1849C86.8102 52.8089 86.9542 53.3369 87.2422 53.7689C87.5782 54.2009 88.1302 54.4169 88.8982 54.4169C89.3782 54.4169 89.9302 54.2729 90.5542 53.9849C91.1782 53.6969 91.6342 53.4089 91.9222 53.1209C93.1222 51.8729 94.2982 50.2409 95.4502 48.2249C96.6502 46.1609 97.7542 44.1209 98.7622 42.1049C98.9542 41.6249 99.1942 41.3849 99.4822 41.3849C99.7222 41.3849 99.8422 41.5529 99.8422 41.8889C99.8422 42.0809 99.7702 42.3689 99.6262 42.7529C99.1462 43.7609 98.5462 45.0089 97.8262 46.4969C97.1062 47.9849 96.2422 49.4729 95.2342 50.9609C94.2742 52.4009 93.2182 53.6009 92.0662 54.5609C90.9142 55.5209 89.6662 56.0009 88.3222 56.0009ZM94.3544 58.4489C93.2984 58.4489 92.4344 58.1129 91.7624 57.4409C91.6184 57.2969 91.5464 57.1529 91.5464 57.0089C91.5464 56.7209 91.7144 56.4569 92.0504 56.2169C92.3864 56.0249 92.6744 56.0489 92.9144 56.2889C93.2984 56.6729 93.8264 56.8649 94.4984 56.8649C95.1224 56.8649 95.8664 56.6729 96.7304 56.2889C97.6904 55.8089 98.7944 54.8009 100.042 53.2649C101.29 51.7289 102.49 49.9049 103.642 47.7929C104.794 45.6329 105.706 43.4489 106.378 41.2409C106.57 40.2809 106.714 39.3929 106.81 38.5769C106.954 37.7609 107.026 36.9689 107.026 36.2009C107.026 35.4809 106.93 34.8809 106.738 34.4009C106.546 33.9209 106.186 33.6809 105.658 33.6809C105.274 33.6809 104.77 33.9209 104.146 34.4009C103.57 34.8809 102.946 35.6729 102.274 36.7769C102.082 37.1129 101.698 37.8329 101.122 38.9369C100.546 40.0409 99.9464 41.1929 99.3224 42.3929C98.7464 43.5449 98.2664 44.4329 97.8824 45.0569C97.5944 45.4889 97.3544 45.7049 97.1624 45.7049C96.9704 45.7049 96.8744 45.5369 96.8744 45.2009C96.8744 44.8649 96.9704 44.5049 97.1624 44.1209C97.4504 43.5449 97.8344 42.7529 98.3144 41.7449C98.8424 40.7369 99.3944 39.6809 99.9704 38.5769C100.594 37.4249 101.194 36.3929 101.77 35.4809C102.394 34.5209 102.946 33.8249 103.426 33.3929C103.906 33.0089 104.482 32.6489 105.154 32.3129C105.826 31.9769 106.498 31.8089 107.17 31.8089C108.562 31.8089 109.522 32.3129 110.05 33.3209C110.578 34.3289 110.842 35.5289 110.842 36.9209C110.842 38.2169 110.698 39.5609 110.41 40.9529C111.274 39.3209 112.234 37.7369 113.29 36.2009C114.346 34.6649 115.378 33.3929 116.386 32.3849C117.442 31.3289 118.306 30.7049 118.978 30.5129C119.122 30.4649 119.266 30.4409 119.41 30.4409C119.554 30.4409 119.698 30.4409 119.842 30.4409C120.418 30.4409 120.898 30.5849 121.282 30.8729C121.714 31.1129 121.93 31.5209 121.93 32.0969C121.93 32.8649 121.618 33.5369 120.994 34.1129C120.37 34.6889 119.698 34.9769 118.978 34.9769C117.922 34.9769 117.322 34.5449 117.178 33.6809C115.69 35.0729 114.202 36.9689 112.714 39.3689C111.274 41.7209 110.146 44.0489 109.33 46.3529C109.186 47.2649 109.114 48.1529 109.114 49.0169C109.114 50.4569 109.306 51.6569 109.69 52.6169C110.074 53.5289 110.602 54.0809 111.274 54.2729C111.466 54.3209 111.73 54.3449 112.066 54.3449C113.41 54.3449 114.658 53.7209 115.81 52.4729C117.01 51.2249 118.138 49.6649 119.194 47.7929C120.298 45.8729 121.33 43.9769 122.29 42.1049C122.482 41.6249 122.746 41.3849 123.082 41.3849C123.226 41.3849 123.322 41.5049 123.37 41.7449C123.466 41.9369 123.442 42.1769 123.298 42.4649C122.722 43.6649 122.05 45.0329 121.282 46.5689C120.562 48.1049 119.698 49.5929 118.69 51.0329C117.73 52.4729 116.578 53.6729 115.234 54.6329C113.938 55.5449 112.426 56.0009 110.698 56.0009C109.546 56.0009 108.586 55.6649 107.818 54.9929C107.05 54.2729 106.45 53.4089 106.018 52.4009C105.634 51.3449 105.442 50.3129 105.442 49.3049V47.5049C104.242 49.8569 102.898 51.9929 101.41 53.9129C99.9704 55.7849 98.5544 57.0569 97.1624 57.7289C96.2024 58.2089 95.2664 58.4489 94.3544 58.4489ZM124.879 56.0009C123.055 56.0009 121.711 55.4009 120.847 54.2009C119.983 52.9529 119.551 51.4409 119.551 49.6649C119.551 47.5049 120.055 45.2489 121.063 42.8969C122.023 40.6889 123.247 38.6729 124.735 36.8489C126.223 35.0249 127.831 33.5609 129.559 32.4569C131.287 31.3049 132.967 30.7289 134.599 30.7289C136.423 30.7289 137.767 31.3289 138.631 32.5289C139.495 33.7289 139.927 35.2409 139.927 37.0649C139.927 39.2729 139.423 41.5289 138.415 43.8329C137.839 45.1289 137.023 46.5689 135.967 48.1529C134.911 49.6889 133.711 51.1049 132.367 52.4009C132.655 52.9289 133.063 53.3849 133.591 53.7689C134.119 54.1049 134.839 54.2729 135.751 54.2729C136.903 54.2729 137.983 53.7929 138.991 52.8329C140.047 51.8729 141.007 50.7209 141.871 49.3769C142.735 47.9849 143.503 46.5929 144.175 45.2009C144.847 43.8089 145.399 42.6809 145.831 41.8169C145.975 41.5289 146.215 41.3849 146.551 41.3849C146.743 41.3849 146.887 41.4809 146.983 41.6729C147.079 41.8169 147.055 42.0569 146.911 42.3929C146.623 43.1129 146.143 44.1929 145.471 45.6329C144.799 47.0249 143.983 48.4889 143.023 50.0249C142.063 51.5129 140.959 52.7849 139.711 53.8409C138.463 54.8969 137.071 55.4249 135.535 55.4249C134.479 55.4249 133.567 55.2569 132.799 54.9209C132.031 54.5369 131.407 54.0809 130.927 53.5529C129.919 54.3209 128.911 54.9209 127.903 55.3529C126.895 55.7849 125.887 56.0009 124.879 56.0009ZM125.959 54.4169C127.255 54.4169 128.647 53.7929 130.135 52.5449C129.751 51.9689 129.463 51.3689 129.271 50.7449C129.079 50.1209 128.983 49.5449 128.983 49.0169C128.983 48.1529 129.175 47.4089 129.559 46.7849C129.991 46.1609 130.639 45.8489 131.503 45.8489C132.127 45.8489 132.631 46.0889 133.015 46.5689C133.447 47.0009 133.663 47.5049 133.663 48.0809C133.663 48.2249 133.639 48.3689 133.591 48.5129C133.591 48.6089 133.567 48.7289 133.519 48.8729C134.335 47.7689 135.103 46.4729 135.823 44.9849C137.407 41.5769 138.199 38.7689 138.199 36.5609C138.199 35.4569 137.983 34.5929 137.551 33.9689C137.119 33.3449 136.471 33.0329 135.607 33.0329C134.599 33.0329 133.495 33.4649 132.295 34.3289C131.143 35.1929 130.015 36.3449 128.911 37.7849C127.855 39.2249 126.919 40.8329 126.103 42.6089C125.335 44.2409 124.711 45.8249 124.231 47.3609C123.799 48.8489 123.583 50.1449 123.583 51.2489C123.583 52.2089 123.775 52.9769 124.159 53.5529C124.543 54.1289 125.143 54.4169 125.959 54.4169ZM61.723 104.289C59.947 104.289 58.339 103.713 56.899 102.561C55.507 101.409 54.811 99.6569 54.811 97.3049C54.811 95.1449 55.339 92.8409 56.395 90.3929C57.451 87.8969 58.795 85.7129 60.427 83.8409C61.819 82.2089 63.379 80.8649 65.107 79.8089C66.835 78.7529 68.467 78.2249 70.003 78.2249C71.059 78.2249 71.971 78.5129 72.739 79.0889C73.555 79.7129 73.963 80.6009 73.963 81.7529C73.963 82.9529 73.507 84.2729 72.595 85.7129C71.683 87.1529 70.387 88.4969 68.707 89.7449C67.987 90.2729 67.075 90.7769 65.971 91.2569C64.867 91.7369 63.763 92.1449 62.659 92.4809C61.555 92.7689 60.643 92.9129 59.923 92.9129C59.683 93.4889 59.443 94.2569 59.203 95.2169C59.011 96.1769 58.915 97.1609 58.915 98.1689C58.915 99.3689 59.155 100.449 59.635 101.409C60.115 102.369 61.003 102.849 62.299 102.849C63.883 102.849 65.323 102.393 66.619 101.481C67.915 100.569 69.067 99.4409 70.075 98.0969C71.083 96.7049 71.923 95.3129 72.595 93.9209C73.315 92.5289 73.891 91.3529 74.323 90.3929C74.611 89.7209 74.995 89.3849 75.475 89.3849C75.715 89.3849 75.835 89.5049 75.835 89.7449C75.835 89.9369 75.763 90.1769 75.619 90.4649C74.947 91.9049 74.227 93.4409 73.459 95.0729C72.691 96.6569 71.779 98.1689 70.723 99.6089C69.667 101.001 68.395 102.129 66.907 102.993C65.467 103.857 63.739 104.289 61.723 104.289ZM60.427 91.6169C61.099 91.6169 62.227 91.3769 63.811 90.8969C65.395 90.3689 66.835 89.5529 68.131 88.4489C69.379 87.3449 70.339 86.1449 71.011 84.8489C71.683 83.5049 72.019 82.3769 72.019 81.4649C72.019 80.4089 71.635 79.8809 70.867 79.8809C70.291 79.8809 69.499 80.2649 68.491 81.0329C67.483 81.8009 66.235 83.0969 64.747 84.9209C63.835 86.0729 62.971 87.3209 62.155 88.6649C61.339 90.0089 60.763 90.9929 60.427 91.6169ZM89.9101 154.809C88.8541 154.809 87.7741 154.737 86.6701 154.593C83.6461 154.209 81.4141 153.321 79.9741 151.929C78.5821 150.537 77.8861 149.025 77.8861 147.393C77.8861 145.617 78.6781 144.009 80.2621 142.569C81.8461 141.081 84.0781 140.337 86.9581 140.337C88.8781 140.337 90.9661 140.721 93.2221 141.489C94.4701 141.921 95.9581 142.641 97.6861 143.649C99.4141 144.657 101.406 145.713 103.662 146.817C106.062 144.513 108.246 141.657 110.214 138.249C112.23 134.841 114.222 131.193 116.19 127.305C118.206 123.369 120.366 119.433 122.67 115.497C125.022 111.561 127.734 107.865 130.806 104.409L134.982 99.7289C133.206 99.4409 131.358 99.2249 129.438 99.0809C127.518 98.8889 125.526 98.7929 123.462 98.7929C120.87 98.7929 118.206 98.9369 115.47 99.2249C112.734 99.4649 109.998 99.8729 107.262 100.449C102.75 101.409 98.9341 102.945 95.8141 105.057C92.6941 107.169 90.3181 109.473 88.6861 111.969C87.1021 114.417 86.3101 116.721 86.3101 118.881C86.3101 120.369 86.7181 121.713 87.5341 122.913C88.3981 124.065 89.6701 124.905 91.3501 125.433C92.4061 125.769 93.4861 125.937 94.5901 125.937C96.2221 125.937 97.6621 125.601 98.9101 124.929C100.158 124.257 101.214 123.441 102.078 122.481C102.942 121.473 103.566 120.513 103.95 119.601C104.382 118.689 104.574 118.017 104.526 117.585C104.526 117.249 104.766 117.081 105.246 117.081C105.726 117.081 105.966 117.441 105.966 118.161V118.233C105.966 120.201 105.366 121.905 104.166 123.345C102.966 124.785 101.454 125.889 99.6301 126.657C97.8541 127.425 96.0541 127.809 94.2301 127.809C93.0781 127.809 91.8781 127.617 90.6301 127.233C88.0381 126.321 86.1181 125.001 84.8701 123.273C83.6221 121.497 82.9981 119.553 82.9981 117.441C82.9981 115.473 83.5261 113.457 84.5821 111.393C85.6861 109.281 87.2941 107.289 89.4061 105.417C91.5181 103.497 94.1341 101.841 97.2541 100.449C100.422 99.0569 104.07 98.0729 108.198 97.4969C110.406 97.1609 112.59 96.9209 114.75 96.7769C116.91 96.6329 118.998 96.5609 121.014 96.5609C123.798 96.5609 126.51 96.7049 129.15 96.9929C131.838 97.2329 134.358 97.6169 136.71 98.1449C137.382 97.5689 138.054 97.0649 138.726 96.6329C139.446 96.2009 140.094 95.8649 140.67 95.6249C141.006 95.4809 141.294 95.3849 141.534 95.3369C141.774 95.2889 141.966 95.2649 142.11 95.2649C142.398 95.2649 142.542 95.3609 142.542 95.5529C142.542 95.7929 142.182 96.1769 141.462 96.7049C140.982 97.0409 140.526 97.4249 140.094 97.8569C139.662 98.2409 139.398 98.5289 139.302 98.7209C144.198 99.9689 148.158 101.697 151.182 103.905C154.254 106.065 155.79 108.633 155.79 111.609C155.79 113.145 155.286 114.825 154.278 116.649C153.222 118.425 151.758 119.865 149.886 120.969C148.014 122.025 146.022 122.817 143.91 123.345C141.798 123.825 139.83 124.113 138.006 124.209C139.59 124.689 141.318 125.409 143.19 126.369C145.11 127.281 146.862 128.409 148.446 129.753C150.078 131.097 151.158 132.681 151.686 134.505C152.022 135.657 152.19 136.833 152.19 138.033C152.19 140.577 151.446 142.881 149.958 144.945C148.518 147.009 146.574 148.785 144.126 150.273C141.726 151.713 139.086 152.817 136.206 153.585C133.326 154.401 130.47 154.809 127.638 154.809C126.582 154.809 125.502 154.737 124.398 154.593C119.79 154.017 115.974 153.297 112.95 152.433C109.974 151.569 107.358 150.609 105.102 149.553C100.446 153.057 95.3821 154.809 89.9101 154.809ZM126.63 152.721C129.606 152.721 132.318 152.265 134.766 151.353C137.214 150.441 139.326 149.241 141.102 147.753C142.926 146.265 144.318 144.609 145.278 142.785C146.286 140.961 146.79 139.161 146.79 137.385C146.79 135.705 146.286 134.073 145.278 132.489C144.27 130.905 142.686 129.585 140.526 128.529C138.654 127.617 136.71 126.873 134.694 126.297C132.726 125.673 131.022 125.145 129.582 124.713C128.142 124.233 127.302 123.753 127.062 123.273C127.062 122.697 127.302 122.313 127.782 122.121C128.31 121.881 128.982 121.761 129.798 121.761C130.758 121.761 131.91 121.833 133.254 121.977C134.598 122.121 136.014 122.193 137.502 122.193C139.038 122.193 140.598 121.857 142.182 121.185C143.814 120.465 145.302 119.529 146.646 118.377C147.99 117.177 149.07 115.881 149.886 114.489C150.75 113.049 151.182 111.585 151.182 110.097C151.182 108.753 150.726 107.433 149.814 106.137C148.902 104.841 147.39 103.713 145.278 102.753C143.166 101.793 140.886 101.025 138.438 100.449C136.038 103.761 133.638 107.481 131.238 111.609C128.838 115.689 126.438 119.841 124.038 124.065C121.638 128.241 119.214 132.201 116.766 135.945C114.318 139.689 111.87 142.905 109.422 145.593C108.846 146.217 108.39 146.697 108.054 147.033C107.718 147.321 107.262 147.729 106.686 148.257C108.942 149.169 111.51 150.033 114.39 150.849C117.27 151.665 120.558 152.241 124.254 152.577C124.638 152.625 125.022 152.649 125.406 152.649C125.838 152.697 126.246 152.721 126.63 152.721ZM88.4701 152.577C91.1581 152.721 93.6061 152.409 95.8141 151.641C98.0701 150.825 100.158 149.697 102.078 148.257C100.398 147.441 98.6701 146.601 96.8941 145.737C95.1661 144.825 93.3181 144.009 91.3501 143.289C89.9581 142.809 88.6861 142.569 87.5341 142.569C85.7581 142.569 84.4141 143.049 83.5021 144.009C82.5901 144.921 82.1341 145.977 82.1341 147.177C82.1341 148.425 82.6621 149.625 83.7181 150.777C84.7741 151.881 86.3581 152.481 88.4701 152.577ZM164.349 152.073C163.437 152.073 162.525 151.713 161.613 150.993C160.701 150.225 160.245 149.001 160.245 147.321C160.245 146.025 160.557 144.537 161.181 142.857C161.757 141.225 162.525 139.641 163.485 138.105C164.493 136.569 165.213 135.321 165.645 134.361C165.789 133.977 165.861 133.641 165.861 133.353C165.861 132.489 165.309 131.865 164.205 131.481C163.149 131.097 161.757 130.881 160.029 130.833L159.165 133.209C158.637 134.745 157.893 136.545 156.933 138.609C156.021 140.673 154.989 142.665 153.837 144.585C152.733 146.505 151.581 148.041 150.381 149.193C150.285 149.289 150.165 149.337 150.021 149.337C149.829 149.337 149.709 149.217 149.661 148.977C149.565 148.737 149.661 148.449 149.949 148.113C151.821 145.617 153.501 142.857 154.989 139.833C156.477 136.761 157.725 133.641 158.733 130.473C159.789 127.305 160.557 124.377 161.037 121.689C161.181 120.921 161.445 120.369 161.829 120.033C162.213 119.649 162.621 119.457 163.053 119.457C163.677 119.457 164.253 119.769 164.781 120.393C165.309 120.969 165.573 121.809 165.573 122.913C165.573 123.105 165.549 123.321 165.501 123.561C165.501 123.801 165.477 124.041 165.429 124.281C165.237 125.289 164.661 126.249 163.701 127.161C162.789 128.025 162.045 128.673 161.469 129.105C161.949 129.153 162.453 129.201 162.981 129.249C163.509 129.249 164.085 129.249 164.709 129.249C166.965 129.249 169.197 129.105 171.405 128.817C171.501 129.105 171.549 129.321 171.549 129.465C171.549 130.089 171.357 130.881 170.973 131.841C170.637 132.801 170.277 133.665 169.893 134.433C169.701 134.865 169.317 135.657 168.741 136.809C168.165 137.913 167.541 139.185 166.869 140.625C166.197 142.017 165.621 143.409 165.141 144.801C164.709 146.145 164.493 147.297 164.493 148.257C164.493 149.505 164.973 150.129 165.933 150.129C166.653 150.129 167.445 149.673 168.309 148.761C169.173 147.801 170.013 146.649 170.829 145.305C171.693 143.913 172.461 142.569 173.133 141.273C173.853 139.929 174.405 138.873 174.789 138.105C174.981 137.625 175.245 137.385 175.581 137.385C175.773 137.385 175.869 137.553 175.869 137.889C175.869 138.081 175.797 138.369 175.653 138.753C175.125 139.857 174.501 141.105 173.781 142.497C173.061 143.889 172.245 145.257 171.333 146.601C170.469 147.945 169.509 149.121 168.453 150.129C167.445 151.089 166.341 151.713 165.141 152.001C164.997 152.049 164.733 152.073 164.349 152.073ZM176.138 152.001C175.61 152.001 174.962 151.881 174.194 151.641C173.474 151.401 172.826 150.969 172.25 150.345C171.722 149.673 171.458 148.689 171.458 147.393C171.458 146.145 171.746 144.945 172.322 143.793C172.946 142.593 173.522 141.441 174.05 140.337C173.906 140.337 173.738 140.289 173.546 140.193C173.402 140.097 173.33 139.953 173.33 139.761C173.33 139.569 173.378 139.377 173.474 139.185C173.666 138.801 173.882 138.393 174.122 137.961C174.362 137.529 174.578 137.073 174.77 136.593C175.49 135.105 176.21 133.689 176.93 132.345C177.65 130.953 178.274 129.729 178.802 128.673C179.33 127.617 180.242 127.089 181.538 127.089H186.002C185.186 127.713 184.442 128.409 183.77 129.177C183.146 129.897 182.354 131.241 181.394 133.209C181.394 133.209 181.226 133.545 180.89 134.217C180.554 134.889 180.122 135.753 179.594 136.809C179.114 137.817 178.61 138.849 178.082 139.905C177.602 140.961 177.194 141.849 176.858 142.569C176.234 143.913 175.826 144.993 175.634 145.809C175.442 146.577 175.346 147.297 175.346 147.969C175.346 149.553 175.874 150.345 176.93 150.345C178.082 150.345 179.474 149.409 181.106 147.537C182.45 145.953 183.77 144.057 185.066 141.849C186.362 139.641 187.586 137.361 188.738 135.009C189.938 132.657 190.994 130.545 191.906 128.673C192.434 127.617 193.37 127.089 194.714 127.089H198.674C197.954 127.665 197.354 128.217 196.874 128.745C196.394 129.225 195.914 129.897 195.434 130.761C195.002 131.577 194.402 132.753 193.634 134.289C193.01 135.585 192.338 136.977 191.618 138.465C190.946 139.905 190.346 141.273 189.818 142.569C189.29 143.865 188.954 144.921 188.81 145.737C188.762 146.217 188.714 146.577 188.666 146.817C188.618 147.057 188.594 147.321 188.594 147.609C188.594 148.521 188.738 149.169 189.026 149.553C189.362 149.937 189.746 150.129 190.178 150.129C191.33 150.129 192.482 149.481 193.634 148.185C194.834 146.889 195.962 145.305 197.018 143.433C198.122 141.561 199.058 139.785 199.826 138.105C200.114 137.577 200.378 137.313 200.618 137.313C200.906 137.313 201.05 137.481 201.05 137.817C201.05 138.057 200.954 138.345 200.762 138.681C200.234 139.833 199.586 141.153 198.818 142.641C198.05 144.129 197.186 145.593 196.226 147.033C195.266 148.473 194.21 149.673 193.058 150.633C191.906 151.545 190.658 152.001 189.314 152.001C188.114 152.001 187.13 151.569 186.362 150.705C185.594 149.793 185.21 148.521 185.21 146.889C185.21 145.593 185.45 144.201 185.93 142.713C185.114 144.153 184.178 145.593 183.122 147.033C182.066 148.473 180.938 149.673 179.738 150.633C178.538 151.545 177.338 152.001 176.138 152.001ZM192.149 152.577C193.877 149.073 195.533 145.617 197.117 142.209C198.749 138.753 200.405 135.465 202.085 132.345C203.045 130.617 203.837 129.417 204.461 128.745C205.133 128.025 206.021 127.665 207.125 127.665C207.509 127.665 207.917 127.737 208.349 127.881C208.781 127.977 209.213 128.025 209.645 128.025C209.933 128.025 210.149 128.001 210.293 127.953C209.621 128.337 208.757 129.297 207.701 130.833C206.645 132.321 205.565 134.049 204.461 136.017C203.357 137.985 202.373 139.833 201.509 141.561C202.421 140.457 203.357 139.353 204.317 138.249C205.325 137.145 206.429 136.089 207.629 135.081C208.781 134.073 210.149 133.041 211.733 131.985C213.365 130.881 214.949 129.969 216.485 129.249C218.021 128.529 219.245 128.169 220.157 128.169C220.493 128.169 220.733 128.193 220.877 128.241C220.877 128.241 220.613 128.721 220.085 129.681C219.557 130.593 218.885 131.817 218.069 133.353C217.301 134.841 216.509 136.449 215.693 138.177C214.877 139.857 214.133 141.489 213.461 143.073C212.837 144.609 212.429 145.905 212.237 146.961C212.093 147.585 212.021 148.161 212.021 148.689C212.021 149.457 212.165 149.961 212.453 150.201C212.741 150.441 213.053 150.561 213.389 150.561C214.301 150.561 215.261 150.081 216.269 149.121C217.277 148.113 218.237 146.889 219.149 145.449C220.109 144.009 220.949 142.617 221.669 141.273C222.437 139.881 222.989 138.825 223.325 138.105C223.517 137.721 223.661 137.505 223.757 137.457C223.853 137.361 223.997 137.313 224.189 137.313C224.477 137.313 224.621 137.505 224.621 137.889C224.621 138.129 224.549 138.393 224.405 138.681C223.829 139.785 223.133 141.105 222.317 142.641C221.549 144.177 220.661 145.689 219.653 147.177C218.645 148.617 217.541 149.841 216.341 150.849C215.141 151.809 213.845 152.289 212.453 152.289C211.493 152.289 210.485 151.953 209.429 151.281C208.421 150.609 207.917 149.361 207.917 147.537C207.917 147.009 207.965 146.457 208.061 145.881C208.157 145.257 208.325 144.585 208.565 143.865C208.949 142.905 209.405 141.873 209.933 140.769C210.461 139.665 211.325 138.153 212.525 136.233C212.861 135.705 213.053 135.297 213.101 135.009C213.197 134.721 213.245 134.481 213.245 134.289C213.245 133.713 212.981 133.425 212.453 133.425C212.021 133.425 211.373 133.665 210.509 134.145C209.693 134.625 208.661 135.465 207.413 136.665C206.213 137.817 204.773 139.449 203.093 141.561C201.461 143.673 199.565 146.793 197.405 150.921C197.069 151.545 196.685 151.881 196.253 151.929C195.869 151.977 195.317 152.025 194.597 152.073C194.117 152.121 193.661 152.145 193.229 152.145C192.797 152.193 192.437 152.337 192.149 152.577ZM238.009 152.217C237.481 152.265 236.881 152.145 236.209 151.857C235.537 151.569 234.937 151.041 234.409 150.273C233.929 149.505 233.689 148.425 233.689 147.033C233.689 145.881 233.905 144.489 234.337 142.857C233.761 143.769 233.017 144.897 232.105 146.241C231.193 147.537 230.209 148.689 229.153 149.697C228.241 150.561 227.377 151.185 226.561 151.569C225.745 151.953 225.001 152.145 224.329 152.145C223.081 152.145 222.073 151.593 221.305 150.489C220.537 149.337 220.153 147.849 220.153 146.025C220.153 144.105 220.633 141.921 221.593 139.473C222.553 137.025 224.113 134.481 226.273 131.841C227.665 130.161 229.345 128.817 231.313 127.809C233.329 126.753 235.297 126.225 237.217 126.225C238.321 126.225 239.377 126.417 240.385 126.801C241.393 127.137 242.281 127.713 243.049 128.529C243.385 128.865 243.553 129.249 243.553 129.681C243.553 129.969 243.433 130.209 243.193 130.401C242.953 130.593 242.641 130.641 242.257 130.545C241.729 128.865 240.601 128.025 238.873 128.025C238.057 128.025 237.121 128.289 236.065 128.817C234.433 129.681 232.729 131.097 230.953 133.065C229.225 135.033 227.713 137.073 226.417 139.185C226.225 139.473 225.913 140.025 225.481 140.841C225.097 141.657 224.713 142.569 224.329 143.577C223.945 144.585 223.681 145.569 223.537 146.529C223.489 146.817 223.465 147.033 223.465 147.177C223.465 147.273 223.465 147.441 223.465 147.681C223.465 149.265 224.065 150.057 225.265 150.057C226.705 150.057 228.337 149.001 230.161 146.889C231.409 145.353 232.537 143.745 233.545 142.065C234.553 140.385 235.585 138.585 236.641 136.665C237.361 135.369 238.033 134.289 238.657 133.425C239.281 132.561 240.169 132.129 241.321 132.129C241.849 132.129 242.377 132.201 242.905 132.345C243.433 132.489 243.985 132.513 244.561 132.417C244.177 132.801 243.649 133.521 242.977 134.577C242.353 135.633 241.681 136.833 240.961 138.177C240.241 139.521 239.593 140.889 239.017 142.281C238.441 143.673 238.033 144.873 237.793 145.881C237.745 146.169 237.673 146.577 237.577 147.105C237.529 147.633 237.505 148.017 237.505 148.257C237.505 149.601 237.889 150.273 238.657 150.273C239.425 150.273 240.241 149.817 241.105 148.905C242.017 147.993 242.905 146.865 243.769 145.521C244.633 144.177 245.425 142.833 246.145 141.489C246.865 140.097 247.441 138.969 247.873 138.105C248.065 137.625 248.353 137.385 248.737 137.385C248.977 137.385 249.097 137.553 249.097 137.889C249.097 138.033 249.025 138.297 248.881 138.681C248.305 139.881 247.609 141.249 246.793 142.785C245.977 144.273 245.089 145.737 244.129 147.177C243.169 148.569 242.161 149.745 241.105 150.705C240.097 151.617 239.065 152.121 238.009 152.217Z" fill="#202020"/>
</svg>
